<svg height="160" viewBox="0 0 546 160" width="546" xmlns="http://www.w3.org/2000/svg" xmlns:xlink="http://www.w3.org/1999/xlink"><linearGradient id="a"><stop offset="0" stop-color="#f2a8a4"/><stop offset="1" stop-color="#a8514c"/></linearGradient><text fill="#7a7a83" font-family="ui-monospace, SFMono-Regular, Menlo, Consolas, monospace" font-size="11" x="12" y="22">children: fill · spread: all matches</text><rect fill="#a6c4ee" height="12" rx="3" width="26" x="12" y="31"/><text fill="#7a7a83" font-family="ui-monospace, SFMono-Regular, Menlo, Consolas, monospace" font-size="11" x="43" y="40">blue*</text><rect fill="url(#a)" height="12" rx="3" width="26" x="92.5" y="31"/><text fill="#7a7a83" font-family="ui-monospace, SFMono-Regular, Menlo, Consolas, monospace" font-size="11" x="123.5" y="40">red1</text><path d="m13 135v4h520v-4" style="fill:none;stroke:#7a7a83;stroke-linecap:round;stroke-linejoin:round;stroke-opacity:.7;stroke-width:1.25"/><rect fill="#f2a8a4" height="66" rx="9" width="66" x="12" y="68"/><text fill="#33333a" font-family="ui-monospace, SFMono-Regular, Menlo, Consolas, monospace" font-size="11" text-anchor="middle" x="45" y="105">red1</text><rect fill="#e9928d" height="66" rx="9" width="66" x="88" y="48"/><text fill="#33333a" font-family="ui-monospace, SFMono-Regular, Menlo, Consolas, monospace" font-size="11" text-anchor="middle" x="121" y="85">red2</text><rect fill="#dd7d78" height="66" rx="9" width="66" x="164" y="48"/><text fill="#33333a" font-family="ui-monospace, SFMono-Regular, Menlo, Consolas, monospace" font-size="11" text-anchor="middle" x="197" y="85">red3</text><rect fill="#a6c4ee" height="66" rx="9" width="66" x="240" y="48"/><text fill="#33333a" font-family="ui-monospace, SFMono-Regular, Menlo, Consolas, monospace" font-size="11" text-anchor="middle" x="273" y="85">blue1</text><rect fill="#cf6b65" height="66" rx="9" width="66" x="316" y="48"/><text fill="#33333a" font-family="ui-monospace, SFMono-Regular, Menlo, Consolas, monospace" font-size="11" text-anchor="middle" x="349" y="85">red4</text><rect fill="#bf5b55" height="66" rx="9" width="66" x="392" y="48"/><text fill="#fff" font-family="ui-monospace, SFMono-Regular, Menlo, Consolas, monospace" font-size="11" text-anchor="middle" x="425" y="85">red5</text><rect fill="#a8514c" height="66" rx="9" width="66" x="468" y="48"/><text fill="#fff" font-family="ui-monospace, SFMono-Regular, Menlo, Consolas, monospace" font-size="11" text-anchor="middle" x="501" y="85">red6</text></svg>