<svg height="126" viewBox="0 0 622 126" width="622" xmlns="http://www.w3.org/2000/svg" xmlns:xlink="http://www.w3.org/1999/xlink"><linearGradient id="a"><stop offset="0" stop-color="#f2a8a4"/><stop offset="1" stop-color="#a8514c"/></linearGradient><linearGradient id="b"><stop offset="0" stop-color="#a6c4ee"/><stop offset="1" stop-color="#48699f"/></linearGradient><text fill="#7a7a83" font-family="ui-monospace, SFMono-Regular, Menlo, Consolas, monospace" font-size="11" x="12" y="22">spread: all matches</text><rect fill="url(#a)" height="12" rx="3" width="26" x="12" y="31"/><text fill="#7a7a83" font-family="ui-monospace, SFMono-Regular, Menlo, Consolas, monospace" font-size="11" x="43" y="40">red*</text><rect fill="url(#b)" height="12" rx="3" width="26" x="85.8" y="31"/><text fill="#7a7a83" font-family="ui-monospace, SFMono-Regular, Menlo, Consolas, monospace" font-size="11" x="116.8" y="40">blue*</text><rect fill="#f2a8a4" height="66" rx="9" width="66" x="12" y="48"/><text fill="#33333a" font-family="ui-monospace, SFMono-Regular, Menlo, Consolas, monospace" font-size="11" text-anchor="middle" x="45" y="85">red1</text><rect fill="#e1847f" height="66" rx="9" width="66" x="88" y="48"/><text fill="#33333a" font-family="ui-monospace, SFMono-Regular, Menlo, Consolas, monospace" font-size="11" text-anchor="middle" x="121" y="85">red2</text><rect fill="#ca6660" height="66" rx="9" width="66" x="164" y="48"/><text fill="#33333a" font-family="ui-monospace, SFMono-Regular, Menlo, Consolas, monospace" font-size="11" text-anchor="middle" x="197" y="85">red3</text><rect fill="#a8514c" height="66" rx="9" width="66" x="240" y="48"/><text fill="#fff" font-family="ui-monospace, SFMono-Regular, Menlo, Consolas, monospace" font-size="11" text-anchor="middle" x="273" y="85">red4</text><rect fill="#a6c4ee" height="66" rx="9" width="66" x="316" y="48"/><text fill="#33333a" font-family="ui-monospace, SFMono-Regular, Menlo, Consolas, monospace" font-size="11" text-anchor="middle" x="349" y="85">blue1</text><rect fill="#7ea4dc" height="66" rx="9" width="66" x="392" y="48"/><text fill="#33333a" font-family="ui-monospace, SFMono-Regular, Menlo, Consolas, monospace" font-size="11" text-anchor="middle" x="425" y="85">blue2</text><rect fill="#5b85c5" height="66" rx="9" width="66" x="468" y="48"/><text fill="#33333a" font-family="ui-monospace, SFMono-Regular, Menlo, Consolas, monospace" font-size="11" text-anchor="middle" x="501" y="85">blue3</text><rect fill="#48699f" height="66" rx="9" width="66" x="544" y="48"/><text fill="#fff" font-family="ui-monospace, SFMono-Regular, Menlo, Consolas, monospace" font-size="11" text-anchor="middle" x="577" y="85">blue4</text></svg>