<svg xmlns="http://www.w3.org/2000/svg" viewBox="0 0 546 126" width="546" height="126" role="img" aria-label="A track the rule does not win, spread across all matches">
<title>A track the rule does not win, spread across all matches</title>
<defs><linearGradient id="gradient-all-g0"><stop offset="0" stop-color="#F2A8A4"/><stop offset="1" stop-color="#A8514C"/></linearGradient></defs>
<text x="12" y="22" font-family="ui-monospace, SFMono-Regular, Menlo, Consolas, monospace" font-size="11" fill="#7A7A83">spread: all matches</text>
<rect x="12" y="31" width="26" height="12" rx="3" fill="url(#gradient-all-g0)"/>
<text x="43" y="40" font-family="ui-monospace, SFMono-Regular, Menlo, Consolas, monospace" font-size="11" fill="#7A7A83">red*</text>
<rect x="85.8" y="31" width="26" height="12" rx="3" fill="#A9D8AE"/>
<text x="116.8" y="40" font-family="ui-monospace, SFMono-Regular, Menlo, Consolas, monospace" font-size="11" fill="#7A7A83">green*</text>
<rect x="12" y="48" width="66" height="66" rx="9" fill="#F2A8A4"/>
<text x="45.0" y="85.0" text-anchor="middle" font-family="ui-monospace, SFMono-Regular, Menlo, Consolas, monospace" font-size="11" fill="#33333A" fill-opacity="1">red1</text>
<rect x="88" y="48" width="66" height="66" rx="9" fill="#E9928D"/>
<text x="121.0" y="85.0" text-anchor="middle" font-family="ui-monospace, SFMono-Regular, Menlo, Consolas, monospace" font-size="11" fill="#33333A" fill-opacity="1">red2</text>
<rect x="164" y="48" width="66" height="66" rx="9" fill="#DD7D78"/>
<text x="197.0" y="85.0" text-anchor="middle" font-family="ui-monospace, SFMono-Regular, Menlo, Consolas, monospace" font-size="11" fill="#33333A" fill-opacity="1">red3</text>
<clipPath id="gradient-all-c3"><rect x="240" y="48" width="66" height="66" rx="9"/></clipPath>
<g clip-path="url(#gradient-all-c3)"><rect x="240" y="48.0" width="66" height="22.0" fill="#DEDEE2"/><rect x="240" y="70.0" width="66" height="22.0" fill="#A9D8AE"/><rect x="240" y="92.0" width="66" height="22.0" fill="#4A4A52"/></g>
<rect x="240" y="48" width="66" height="66" rx="9" fill="none" stroke="#7A7A83" stroke-opacity="0.35"/>
<line x1="240" y1="70.0" x2="306" y2="70.0" stroke="#7A7A83" stroke-width="1" stroke-opacity="0.5"/>
<line x1="240" y1="92.0" x2="306" y2="92.0" stroke="#7A7A83" stroke-width="1" stroke-opacity="0.5"/>
<text x="273.0" y="62.5" text-anchor="middle" font-family="ui-monospace, SFMono-Regular, Menlo, Consolas, monospace" font-size="10" fill="#33333A" fill-opacity="0.55">bass</text>
<text x="273.0" y="84.5" text-anchor="middle" font-family="ui-monospace, SFMono-Regular, Menlo, Consolas, monospace" font-size="10" fill="#33333A" fill-opacity="1">green</text>
<text x="273.0" y="106.5" text-anchor="middle" font-family="ui-monospace, SFMono-Regular, Menlo, Consolas, monospace" font-size="10" fill="#FFFFFF" fill-opacity="1">spacer</text>
<rect x="316" y="48" width="66" height="66" rx="9" fill="#CF6B65"/>
<text x="349.0" y="85.0" text-anchor="middle" font-family="ui-monospace, SFMono-Regular, Menlo, Consolas, monospace" font-size="11" fill="#33333A" fill-opacity="1">red4</text>
<rect x="392" y="48" width="66" height="66" rx="9" fill="#BF5B55"/>
<text x="425.0" y="85.0" text-anchor="middle" font-family="ui-monospace, SFMono-Regular, Menlo, Consolas, monospace" font-size="11" fill="#FFFFFF" fill-opacity="1">red5</text>
<rect x="468" y="48" width="66" height="66" rx="9" fill="#A8514C"/>
<text x="501.0" y="85.0" text-anchor="middle" font-family="ui-monospace, SFMono-Regular, Menlo, Consolas, monospace" font-size="11" fill="#FFFFFF" fill-opacity="1">red6</text>
</svg>